<svg xmlns="http://www.w3.org/2000/svg" xmlns:svg="http://www.w3.org/2000/svg" id="SVGRoot" width="16" height="16" version="1.1" viewBox="0 0 16 16"><defs id="defs1906"><marker style="overflow:visible" id="marker3274" orient="auto" refX="0" refY="0"><path style="fill-rule:evenodd;stroke:#070000;stroke-width:1pt;stroke-opacity:1;fill:#070000;fill-opacity:1" id="path3272" d="M 0.0,0.0 L 5.0,-5.0 L -12.5,0.0 L 5.0,5.0 L 0.0,0.0 z" transform="scale(0.8) rotate(180) translate(12.5,0)"/></marker><marker style="overflow:visible" id="Arrow1Lend" orient="auto" refX="0" refY="0"><path style="fill-rule:evenodd;stroke:#070000;stroke-width:1pt;stroke-opacity:1;fill:#ff4b4b;fill-opacity:1" id="path831" d="M 0.0,0.0 L 5.0,-5.0 L -12.5,0.0 L 5.0,5.0 L 0.0,0.0 z" transform="scale(0.8) rotate(180) translate(12.5,0)"/></marker></defs><metadata id="metadata1909"/><g id="layer1"><g style="stroke-width:.9880569" id="g4800" transform="matrix(1.0119041,0,0,1.0122708,-0.45261043,-0.36998222)"><path style="fill:red;fill-opacity:1;stroke:#151515;stroke-width:.626;stroke-linecap:round;stroke-linejoin:round;stroke-miterlimit:4;stroke-dasharray:0,.626,1.252,1.878,2.504,3.13,3.756,4.382,5.00799999,5.63399999,6.25999999,6.88599999,7.51199999,8.13799999,8.76399999;stroke-dashoffset:0;stroke-opacity:1;paint-order:normal" id="rect857" d="M 13.330078 10.658203 A 2.6708718 2.6708717 0 0 0 13.099609 10.669922 C 13.097631 10.669328 13.09788 10.666016 13.095703 10.666016 L 10.6875 10.666016 C 10.675529 10.666016 10.666016 10.675525 10.666016 10.6875 L 10.666016 13.095703 C 10.666016 13.09788 10.669329 13.09763 10.669922 13.099609 A 2.6708718 2.6708717 0 0 0 10.658203 13.330078 A 2.6708718 2.6708717 0 0 0 13.330078 16 A 2.6708718 2.6708717 0 0 0 16 13.330078 A 2.6708718 2.6708717 0 0 0 13.330078 10.658203 z" transform="matrix(0.98823594,0,0,0.98787795,0.44728589,0.36549728)"/><path style="fill:red;fill-opacity:1;stroke:#151515;stroke-width:.62600005;stroke-linecap:round;stroke-linejoin:round;stroke-miterlimit:4;stroke-dasharray:0,.626,1.252,1.878,2.504,3.13,3.756,4.382,5.008,5.634,6.26,6.886,7.512,8.138,8.764;stroke-dashoffset:0;stroke-opacity:1;paint-order:normal" id="path866" d="M 5.359375 0.13671875 A 5.2662815 5.2662815 0 0 0 0.09375 5.4023438 A 5.2662815 5.2662815 0 0 0 5.359375 10.669922 A 5.2662815 5.2662815 0 0 0 5.8125 10.646484 C 5.8164869 10.647699 5.8159208 10.654297 5.8203125 10.654297 L 10.570312 10.654297 C 10.59392 10.654297 10.611328 10.636877 10.611328 10.613281 L 10.611328 5.8632812 C 10.611328 5.8590904 10.60473 5.8594571 10.603516 5.8554688 A 5.2662815 5.2662815 0 0 0 10.626953 5.4023438 A 5.2662815 5.2662815 0 0 0 5.359375 0.13671875 z M 5.3613281 2.7226562 A 2.680523 2.680523 0 0 1 8.0410156 5.4042969 A 2.680523 2.680523 0 0 1 5.3613281 8.0839844 A 2.680523 2.680523 0 0 1 2.6796875 5.4042969 A 2.680523 2.680523 0 0 1 5.3613281 2.7226562 z" transform="matrix(0.98823594,0,0,0.98787795,0.44728589,0.36549728)"/></g></g></svg>