<?xml version="1.0" encoding="UTF-8" standalone="no"?>
<svg
   xmlns:dc="http://purl.org/dc/elements/1.1/"
   xmlns:cc="http://creativecommons.org/ns#"
   xmlns:rdf="http://www.w3.org/1999/02/22-rdf-syntax-ns#"
   xmlns:svg="http://www.w3.org/2000/svg"
   xmlns="http://www.w3.org/2000/svg"
   xmlns:sodipodi="http://sodipodi.sourceforge.net/DTD/sodipodi-0.dtd"
   xmlns:inkscape="http://www.inkscape.org/namespaces/inkscape"
   id="SVGRoot"
   version="1.1"
   viewBox="0 0 16 16"
   height="16px"
   width="16px"
   sodipodi:docname="instantos.svg"
   inkscape:version="0.92.4 5da689c313, 2019-01-14">
  <sodipodi:namedview
     pagecolor="#ffffff"
     bordercolor="#666666"
     borderopacity="1"
     objecttolerance="10"
     gridtolerance="10"
     guidetolerance="10"
     inkscape:pageopacity="0"
     inkscape:pageshadow="2"
     inkscape:window-width="1920"
     inkscape:window-height="1048"
     id="namedview30"
     showgrid="false"
     inkscape:object-paths="true"
     inkscape:snap-intersection-paths="true"
     inkscape:snap-bbox="true"
     inkscape:snap-smooth-nodes="true"
     inkscape:snap-midpoints="true"
     inkscape:bbox-paths="true"
     inkscape:snap-bbox-edge-midpoints="true"
     inkscape:bbox-nodes="true"
     inkscape:snap-bbox-midpoints="true"
     inkscape:snap-global="true"
     inkscape:snap-object-midpoints="true"
     inkscape:snap-center="true"
     inkscape:snap-text-baseline="true"
     inkscape:snap-page="true"
     inkscape:zoom="20.85965"
     inkscape:cx="-2.9270617"
     inkscape:cy="7.2934116"
     inkscape:window-x="1920"
     inkscape:window-y="32"
     inkscape:window-maximized="0"
     inkscape:current-layer="g4800" />
  <defs
     id="defs1906">
    <marker
       style="overflow:visible;"
       id="marker3274"
       refX="0.0"
       refY="0.0"
       orient="auto">
      <path
         transform="scale(0.8) rotate(180) translate(12.5,0)"
         style="fill-rule:evenodd;stroke:#070000;stroke-width:1pt;stroke-opacity:1;fill:#070000;fill-opacity:1"
         d="M 0.0,0.0 L 5.0,-5.0 L -12.5,0.0 L 5.0,5.0 L 0.0,0.0 z "
         id="path3272" />
    </marker>
    <marker
       style="overflow:visible;"
       id="Arrow1Lend"
       refX="0.0"
       refY="0.0"
       orient="auto">
      <path
         transform="scale(0.8) rotate(180) translate(12.5,0)"
         style="fill-rule:evenodd;stroke:#070000;stroke-width:1pt;stroke-opacity:1;fill:#ff4b4b;fill-opacity:1"
         d="M 0.0,0.0 L 5.0,-5.0 L -12.5,0.0 L 5.0,5.0 L 0.0,0.0 z "
         id="path831" />
    </marker>
  </defs>
  <metadata
     id="metadata1909">
    <rdf:RDF>
      <cc:Work
         rdf:about="">
        <dc:format>image/svg+xml</dc:format>
        <dc:type
           rdf:resource="http://purl.org/dc/dcmitype/StillImage" />
        <dc:title></dc:title>
      </cc:Work>
    </rdf:RDF>
  </metadata>
  <g
     id="layer1">
    <g
       style="stroke-width:0.9880569"
       transform="matrix(1.0119041,0,0,1.0122708,-0.45261043,-0.36998222)"
       id="g4800">
      <path
         style="fill:#ff0000;fill-opacity:1;stroke:#151515;stroke-width:0.626;stroke-linecap:round;stroke-linejoin:round;stroke-miterlimit:4;stroke-dasharray:0,0.626,1.252,1.878,2.504,3.13,3.756,4.382,5.00799999,5.63399999,6.25999999,6.88599999,7.51199999,8.13799999,8.76399999;stroke-dashoffset:0;stroke-opacity:1;paint-order:normal"
         d="M 13.330078 10.658203 A 2.6708718 2.6708717 0 0 0 13.099609 10.669922 C 13.097631 10.669328 13.09788 10.666016 13.095703 10.666016 L 10.6875 10.666016 C 10.675529 10.666016 10.666016 10.675525 10.666016 10.6875 L 10.666016 13.095703 C 10.666016 13.09788 10.669329 13.09763 10.669922 13.099609 A 2.6708718 2.6708717 0 0 0 10.658203 13.330078 A 2.6708718 2.6708717 0 0 0 13.330078 16 A 2.6708718 2.6708717 0 0 0 16 13.330078 A 2.6708718 2.6708717 0 0 0 13.330078 10.658203 z "
         transform="matrix(0.98823594,0,0,0.98787795,0.44728589,0.36549728)"
         id="rect857" />
      <path
         style="fill:#ff0000;fill-opacity:1;stroke:#151515;stroke-width:0.62600005;stroke-linecap:round;stroke-linejoin:round;stroke-miterlimit:4;stroke-dasharray:0, 0.626, 1.252, 1.878, 2.504, 3.13, 3.756, 4.382, 5.008, 5.634, 6.26, 6.886, 7.512, 8.138, 8.764;stroke-dashoffset:0;stroke-opacity:1;paint-order:normal"
         d="M 5.359375 0.13671875 A 5.2662815 5.2662815 0 0 0 0.09375 5.4023438 A 5.2662815 5.2662815 0 0 0 5.359375 10.669922 A 5.2662815 5.2662815 0 0 0 5.8125 10.646484 C 5.8164869 10.647699 5.8159208 10.654297 5.8203125 10.654297 L 10.570312 10.654297 C 10.59392 10.654297 10.611328 10.636877 10.611328 10.613281 L 10.611328 5.8632812 C 10.611328 5.8590904 10.60473 5.8594571 10.603516 5.8554688 A 5.2662815 5.2662815 0 0 0 10.626953 5.4023438 A 5.2662815 5.2662815 0 0 0 5.359375 0.13671875 z M 5.3613281 2.7226562 A 2.680523 2.680523 0 0 1 8.0410156 5.4042969 A 2.680523 2.680523 0 0 1 5.3613281 8.0839844 A 2.680523 2.680523 0 0 1 2.6796875 5.4042969 A 2.680523 2.680523 0 0 1 5.3613281 2.7226562 z "
         transform="matrix(0.98823594,0,0,0.98787795,0.44728589,0.36549728)"
         id="path866" />
    </g>
  </g>
</svg>
