<?xml version="1.0" encoding="UTF-8" standalone="no"?>
<!-- Created with Inkscape (http://www.inkscape.org/) -->

<svg
   xmlns:dc="http://purl.org/dc/elements/1.1/"
   xmlns:cc="http://creativecommons.org/ns#"
   xmlns:rdf="http://www.w3.org/1999/02/22-rdf-syntax-ns#"
   xmlns:svg="http://www.w3.org/2000/svg"
   xmlns="http://www.w3.org/2000/svg"
   xmlns:sodipodi="http://sodipodi.sourceforge.net/DTD/sodipodi-0.dtd"
   xmlns:inkscape="http://www.inkscape.org/namespaces/inkscape"
   width="18px"
   height="18px"
   viewBox="0 0 18 18"
   version="1.1"
   id="SVGRoot"
   inkscape:version="0.92.4 5da689c313, 2019-01-14"
   sodipodi:docname="logo.svg">
  <defs
     id="defs2574" />
  <sodipodi:namedview
     id="base"
     pagecolor="#ffffff"
     bordercolor="#666666"
     borderopacity="1.0"
     inkscape:pageopacity="0.0"
     inkscape:pageshadow="2"
     inkscape:zoom="32"
     inkscape:cx="10.511163"
     inkscape:cy="7.9080661"
     inkscape:document-units="px"
     inkscape:current-layer="layer1"
     showgrid="false"
     inkscape:window-width="1920"
     inkscape:window-height="1058"
     inkscape:window-x="1920"
     inkscape:window-y="22"
     inkscape:window-maximized="0"
     inkscape:grid-bbox="true"
     inkscape:snap-bbox="true"
     inkscape:bbox-paths="true"
     inkscape:bbox-nodes="true"
     inkscape:snap-bbox-edge-midpoints="true"
     inkscape:snap-bbox-midpoints="true"
     inkscape:snap-intersection-paths="true"
     inkscape:object-paths="true"
     inkscape:snap-smooth-nodes="true"
     inkscape:snap-others="true"
     inkscape:snap-midpoints="true"
     inkscape:snap-object-midpoints="true"
     inkscape:snap-center="true"
     inkscape:snap-text-baseline="true">
    <inkscape:grid
       type="xygrid"
       id="grid3130" />
  </sodipodi:namedview>
  <metadata
     id="metadata2577">
    <rdf:RDF>
      <cc:Work
         rdf:about="">
        <dc:format>image/svg+xml</dc:format>
        <dc:type
           rdf:resource="http://purl.org/dc/dcmitype/StillImage" />
        <dc:title></dc:title>
      </cc:Work>
    </rdf:RDF>
  </metadata>
  <g
     inkscape:label="Layer 1"
     inkscape:groupmode="layer"
     id="layer1">
    <path
       style="opacity:1;fill:#000000;fill-opacity:1;stroke:none;stroke-width:10;stroke-linecap:round;stroke-linejoin:round;stroke-miterlimit:4;stroke-dasharray:0, 9.99999988999999978, 19.99999976000000146, 29.99999964999999946, 39.99999953999999747, 49.99999943000000258, 59.99999932000000058, 69.99999919000001114, 79.99999908999998866, 89.99999898000000087, 99.99999886000000515, 109.99999873999999522, 119.99999863000000744, 129.99999851999999123, 139.99999840000000972;stroke-dashoffset:0;stroke-opacity:1"
       d="M 6.5 0 A 4 4 0 0 0 2.5 4 A 4 4 0 0 0 6.5 8 L 7.5 8 L 7.5 10 L 2.5 10 A 3 3 0 0 0 2.5078125 10.212891 A 3 3 0 0 0 2.5429688 10.509766 A 3 3 0 0 0 2.609375 10.802734 A 3 3 0 0 0 2.703125 11.087891 A 3 3 0 0 0 2.8261719 11.361328 A 3 3 0 0 0 2.9765625 11.621094 A 3 3 0 0 0 3.1503906 11.865234 A 3 3 0 0 0 3.3476562 12.089844 A 3 3 0 0 0 3.5664062 12.294922 A 3 3 0 0 0 3.8066406 12.476562 A 3 3 0 0 0 4.0625 12.632812 A 3 3 0 0 0 4.3320312 12.763672 A 3 3 0 0 0 4.6132812 12.865234 A 3 3 0 0 0 4.9042969 12.939453 A 3 3 0 0 0 5.2011719 12.984375 A 3 3 0 0 0 5.5 13 L 7.5 13 L 7.5 14 A 3.9999998 3.9999998 0 0 0 11.5 18 A 3.9999998 3.9999998 0 0 0 15.5 14 A 3.9999998 3.9999998 0 0 0 14.619141 11.501953 A 4 4 0 0 0 15.5 9 A 4 4 0 0 0 11.5 5 L 10.5 5 L 10.5 4 A 4 4 0 0 0 6.5 0 z M 6.5 3 A 1 1 0 0 1 6.5996094 3.0058594 A 1 1 0 0 1 6.6992188 3.0195312 A 1 1 0 0 1 6.7949219 3.0449219 A 1 1 0 0 1 6.8886719 3.078125 A 1 1 0 0 1 6.9785156 3.1230469 A 1 1 0 0 1 7.0644531 3.1738281 A 1 1 0 0 1 7.1445312 3.234375 A 1 1 0 0 1 7.2167969 3.3027344 A 1 1 0 0 1 7.2832031 3.3789062 A 1 1 0 0 1 7.3417969 3.4589844 A 1 1 0 0 1 7.390625 3.546875 A 1 1 0 0 1 7.4316406 3.6367188 A 1 1 0 0 1 7.4628906 3.7324219 A 1 1 0 0 1 7.4863281 3.8300781 A 1 1 0 0 1 7.4980469 3.9296875 A 1 1 0 0 1 7.5 4 L 7.5 5 L 6.5 5 A 1 1 0 0 1 6.4003906 4.9941406 A 1 1 0 0 1 6.3007812 4.9804688 A 1 1 0 0 1 6.2050781 4.9550781 A 1 1 0 0 1 6.1113281 4.921875 A 1 1 0 0 1 6.0214844 4.8769531 A 1 1 0 0 1 5.9355469 4.8261719 A 1 1 0 0 1 5.8554688 4.765625 A 1 1 0 0 1 5.7832031 4.6972656 A 1 1 0 0 1 5.7167969 4.6210938 A 1 1 0 0 1 5.6582031 4.5410156 A 1 1 0 0 1 5.609375 4.453125 A 1 1 0 0 1 5.5683594 4.3632812 A 1 1 0 0 1 5.5371094 4.2675781 A 1 1 0 0 1 5.5136719 4.1699219 A 1 1 0 0 1 5.5019531 4.0703125 A 1 1 0 0 1 5.5 4 A 1 1 0 0 1 5.5058594 3.9003906 A 1 1 0 0 1 5.5195312 3.8007812 A 1 1 0 0 1 5.5449219 3.7050781 A 1 1 0 0 1 5.578125 3.6113281 A 1 1 0 0 1 5.6230469 3.5214844 A 1 1 0 0 1 5.6738281 3.4355469 A 1 1 0 0 1 5.734375 3.3554688 A 1 1 0 0 1 5.8027344 3.2832031 A 1 1 0 0 1 5.8789062 3.2167969 A 1 1 0 0 1 5.9589844 3.1582031 A 1 1 0 0 1 6.046875 3.109375 A 1 1 0 0 1 6.1367188 3.0683594 A 1 1 0 0 1 6.2324219 3.0371094 A 1 1 0 0 1 6.3300781 3.0136719 A 1 1 0 0 1 6.4296875 3.0019531 A 1 1 0 0 1 6.5 3 z M 10.5 8 L 11.5 8 A 1 1 0 0 1 11.599609 8.0058594 A 1 1 0 0 1 11.699219 8.0195312 A 1 1 0 0 1 11.794922 8.0449219 A 1 1 0 0 1 11.888672 8.078125 A 1 1 0 0 1 11.978516 8.1230469 A 1 1 0 0 1 12.064453 8.1738281 A 1 1 0 0 1 12.144531 8.234375 A 1 1 0 0 1 12.216797 8.3027344 A 1 1 0 0 1 12.283203 8.3789062 A 1 1 0 0 1 12.341797 8.4589844 A 1 1 0 0 1 12.390625 8.546875 A 1 1 0 0 1 12.431641 8.6367188 A 1 1 0 0 1 12.462891 8.7324219 A 1 1 0 0 1 12.486328 8.8300781 A 1 1 0 0 1 12.498047 8.9296875 A 1 1 0 0 1 12.5 9 A 1 1 0 0 1 12.494141 9.0996094 A 1 1 0 0 1 12.480469 9.1992188 A 1 1 0 0 1 12.455078 9.2949219 A 1 1 0 0 1 12.421875 9.3886719 A 1 1 0 0 1 12.376953 9.4785156 A 1 1 0 0 1 12.326172 9.5644531 A 1 1 0 0 1 12.265625 9.6445312 A 1 1 0 0 1 12.197266 9.7167969 A 1 1 0 0 1 12.121094 9.7832031 A 1 1 0 0 1 12.041016 9.8417969 A 1 1 0 0 1 11.953125 9.890625 A 1 1 0 0 1 11.863281 9.9316406 A 1 1 0 0 1 11.767578 9.9628906 A 1 1 0 0 1 11.669922 9.9863281 A 1 1 0 0 1 11.570312 9.9980469 A 1 1 0 0 1 11.5 10 L 10.5 10 L 10.5 8 z M 10.5 13 L 11.5 13 A 1 1 0 0 1 11.599609 13.005859 A 1 1 0 0 1 11.699219 13.019531 A 1 1 0 0 1 11.794922 13.044922 A 1 1 0 0 1 11.888672 13.078125 A 1 1 0 0 1 11.978516 13.123047 A 1 1 0 0 1 12.064453 13.173828 A 1 1 0 0 1 12.144531 13.234375 A 1 1 0 0 1 12.216797 13.302734 A 1 1 0 0 1 12.283203 13.378906 A 1 1 0 0 1 12.341797 13.458984 A 1 1 0 0 1 12.390625 13.546875 A 1 1 0 0 1 12.431641 13.636719 A 1 1 0 0 1 12.462891 13.732422 A 1 1 0 0 1 12.486328 13.830078 A 1 1 0 0 1 12.498047 13.929688 A 1 1 0 0 1 12.5 14 A 1 1 0 0 1 12.494141 14.099609 A 1 1 0 0 1 12.480469 14.199219 A 1 1 0 0 1 12.455078 14.294922 A 1 1 0 0 1 12.421875 14.388672 A 1 1 0 0 1 12.376953 14.478516 A 1 1 0 0 1 12.326172 14.564453 A 1 1 0 0 1 12.265625 14.644531 A 1 1 0 0 1 12.197266 14.716797 A 1 1 0 0 1 12.121094 14.783203 A 1 1 0 0 1 12.041016 14.841797 A 1 1 0 0 1 11.953125 14.890625 A 1 1 0 0 1 11.863281 14.931641 A 1 1 0 0 1 11.767578 14.962891 A 1 1 0 0 1 11.669922 14.986328 A 1 1 0 0 1 11.570312 14.998047 A 1 1 0 0 1 11.5 15 A 1 1 0 0 1 11.400391 14.994141 A 1 1 0 0 1 11.300781 14.980469 A 1 1 0 0 1 11.205078 14.955078 A 1 1 0 0 1 11.111328 14.921875 A 1 1 0 0 1 11.021484 14.876953 A 1 1 0 0 1 10.935547 14.826172 A 1 1 0 0 1 10.855469 14.765625 A 1 1 0 0 1 10.783203 14.697266 A 1 1 0 0 1 10.716797 14.621094 A 1 1 0 0 1 10.658203 14.541016 A 1 1 0 0 1 10.609375 14.453125 A 1 1 0 0 1 10.568359 14.363281 A 1 1 0 0 1 10.537109 14.267578 A 1 1 0 0 1 10.513672 14.169922 A 1 1 0 0 1 10.501953 14.070312 A 1 1 0 0 1 10.5 14 L 10.5 13 z "
       id="path3132" />
  </g>
</svg>
