<?xml version="1.0" encoding="UTF-8" standalone="no"?>
<svg
   xmlns:dc="http://purl.org/dc/elements/1.1/"
   xmlns:cc="http://creativecommons.org/ns#"
   xmlns:rdf="http://www.w3.org/1999/02/22-rdf-syntax-ns#"
   xmlns:svg="http://www.w3.org/2000/svg"
   xmlns="http://www.w3.org/2000/svg"
   id="SVGRoot"
   version="1.1"
   viewBox="0 0 16 16"
   height="16px"
   width="16px">
  <defs
     id="defs1906">
    <marker
       style="overflow:visible;"
       id="marker3274"
       refX="0.0"
       refY="0.0"
       orient="auto">
      <path
         transform="scale(0.8) rotate(180) translate(12.5,0)"
         style="fill-rule:evenodd;stroke:#070000;stroke-width:1pt;stroke-opacity:1;fill:#070000;fill-opacity:1"
         d="M 0.0,0.0 L 5.0,-5.0 L -12.5,0.0 L 5.0,5.0 L 0.0,0.0 z "
         id="path3272" />
    </marker>
    <marker
       style="overflow:visible;"
       id="Arrow1Lend"
       refX="0.0"
       refY="0.0"
       orient="auto">
      <path
         transform="scale(0.8) rotate(180) translate(12.5,0)"
         style="fill-rule:evenodd;stroke:#070000;stroke-width:1pt;stroke-opacity:1;fill:#ff4b4b;fill-opacity:1"
         d="M 0.0,0.0 L 5.0,-5.0 L -12.5,0.0 L 5.0,5.0 L 0.0,0.0 z "
         id="path831" />
    </marker>
  </defs>
  <metadata
     id="metadata1909">
    <rdf:RDF>
      <cc:Work
         rdf:about="">
        <dc:format>image/svg+xml</dc:format>
        <dc:type
           rdf:resource="http://purl.org/dc/dcmitype/StillImage" />
        <dc:title></dc:title>
      </cc:Work>
    </rdf:RDF>
  </metadata>
  <g
     id="layer1">
    <g
       style="stroke-width:0.9880569"
       transform="matrix(1.0119041,0,0,1.0122708,-0.45261043,-0.36998222)"
       id="g4800">
      <rect
         style="opacity:1;fill:#ffff7e;fill-opacity:1;stroke:#000000;stroke-width:0.91494071;stroke-linecap:round;stroke-linejoin:round;stroke-miterlimit:4;stroke-dasharray:0, 0.9149407, 1.82988139, 2.74482211, 3.6597628, 4.5747035, 5.4896442, 6.40458491, 7.31952561, 8.2344663, 9.14940701, 10.06434772, 10.97928841, 11.89422911, 12.8091698;stroke-dashoffset:0;stroke-opacity:1"
         id="rect2464"
         width="14.896668"
         height="14.896668"
         x="22.324932"
         y="0.31087536"
         ry="2.9088168" />
      <rect
         style="opacity:1;fill:#ff4b4b;fill-opacity:1;stroke:#070000;stroke-width:0.52006495;stroke-linecap:round;stroke-linejoin:round;stroke-miterlimit:4;stroke-dasharray:0, 0.52006493, 1.04012986, 1.5601948, 2.08025973, 2.60032466, 3.12038959, 3.64045452, 4.16051945, 4.68058439, 5.20064932, 5.72071425, 6.24077917, 6.76084409, 7.28090903;stroke-dashoffset:0;stroke-opacity:1"
         id="rect2466"
         width="9.9017296"
         height="9.9017296"
         x="24.822401"
         y="2.8083441"
         ry="0.32849342" />
      <path
         style="opacity:1;fill:#ff4b4b;fill-opacity:1;stroke:#070000;stroke-width:0.32245356;stroke-linecap:round;stroke-linejoin:round;stroke-miterlimit:4;stroke-dasharray:1.93472132, 1.93472132;stroke-dashoffset:0;stroke-opacity:1"
         d="m 24.822401,2.8083442 9.90173,9.9017308"
         id="path2468" />
      <path
         style="opacity:1;fill:none;fill-opacity:1;stroke:#070000;stroke-width:0.28535718;stroke-linecap:round;stroke-linejoin:round;stroke-miterlimit:4;stroke-dasharray:none;stroke-dashoffset:0;stroke-opacity:1;marker-end:url(#marker3274)"
         d="M 24.822401,12.710075 C 23.896587,13.10088 22.737985,7.6942265 34.220823,3.1955046"
         id="path2470" />
      <rect
         ry="2.5920846"
         y="-13.51304"
         x="9.5769873"
         height="11.747421"
         width="14.950313"
         id="rect6094"
         style="opacity:1;fill:#ff0000;fill-opacity:1;stroke:#070000;stroke-width:0.6185236;stroke-linecap:round;stroke-linejoin:round;stroke-miterlimit:4;stroke-dasharray:3.71114192, 3.71114192;stroke-dashoffset:0;stroke-opacity:1" />
      <path
         transform="matrix(0.82463921,0,0,0.82605634,13.219685,-12.27964)"
         d="m 9.55867,5.6174269 -7.3668487,4.2532521 0,-8.5065042 z"
         id="path6096"
         style="opacity:1;fill:#ffffff;fill-opacity:1;stroke:#070000;stroke-width:0.74940997;stroke-linecap:round;stroke-linejoin:round;stroke-miterlimit:4;stroke-dasharray:4.49645993, 4.49645993;stroke-dashoffset:0;stroke-opacity:1" />
      <g
         style="stroke-width:0.96603668"
         transform="matrix(1.002825,0,0,1.0431615,-16.650223,-10.884255)"
         id="g6209">
        <rect
           style="opacity:1;fill:#9f2ee3;fill-opacity:1;stroke:#070000;stroke-width:0.60473895;stroke-linecap:round;stroke-linejoin:round;stroke-miterlimit:4;stroke-dasharray:3.62843373, 3.62843373;stroke-dashoffset:0;stroke-opacity:1"
           id="rect6123"
           width="5.0782051"
           height="7.1031122"
           x="5.6491003"
           y="6.4629016"
           ry="2.4524739"
           transform="matrix(0.91366373,-0.4064709,0.40633036,0.91372624,0,0)" />
        <rect
           transform="matrix(0.93332393,0.35903543,-0.35838734,0.93357298,0,0)"
           ry="2.315109"
           y="1.6705754"
           x="1.6608582"
           height="6.7052608"
           width="4.7907453"
           id="rect6129"
           style="opacity:1;fill:#9f2ee3;fill-opacity:1;stroke:#070000;stroke-width:0.60473901;stroke-linecap:round;stroke-linejoin:round;stroke-miterlimit:4;stroke-dasharray:3.62843419, 3.62843419;stroke-dashoffset:0;stroke-opacity:1" />
        <ellipse
           style="opacity:1;fill:#bb47ff;fill-opacity:1;stroke:#151515;stroke-width:0.60473896;stroke-linecap:round;stroke-linejoin:round;stroke-miterlimit:4;stroke-dasharray:3.62843377,3.62843377;stroke-dashoffset:0;stroke-opacity:1"
           id="path6119"
           cx="6.7756133"
           cy="3.2660332"
           rx="6.4562478"
           ry="3.4613686" />
        <rect
           style="opacity:1;fill:#ffffff;fill-opacity:1;stroke:#070000;stroke-width:0.60473895;stroke-linecap:round;stroke-linejoin:round;stroke-miterlimit:4;stroke-dasharray:3.62843379, 3.62843379;stroke-dashoffset:0;stroke-opacity:1"
           id="rect6125"
           width="1.8052074"
           height="1.8045534"
           x="8.2973309"
           y="2.1051931"
           ry="0.90227669" />
        <rect
           ry="0.90252191"
           y="-3.3879426"
           x="4.0053816"
           height="1.8050438"
           width="1.8047169"
           id="rect6131"
           style="opacity:1;fill:#ffffff;fill-opacity:1;stroke:#070000;stroke-width:0.60473895;stroke-linecap:round;stroke-linejoin:round;stroke-miterlimit:4;stroke-dasharray:3.62843379, 3.62843379;stroke-dashoffset:0;stroke-opacity:1"
           transform="matrix(0.50013588,0.86594694,-0.86610383,0.49986414,0,0)" />
      </g>
      <g
         transform="translate(4.1458405,-4.9732064)"
         id="g6202">
        <rect
           style="opacity:1;fill:#2d7dc9;fill-opacity:1;stroke:#151515;stroke-width:0.6185236;stroke-linecap:round;stroke-linejoin:round;stroke-miterlimit:4;stroke-dasharray:3.71114182, 3.71114182;stroke-dashoffset:0;stroke-opacity:1"
           id="rect6174"
           width="2.1823776"
           height="5.0143938"
           x="36.493675"
           y="-13.016734"
           ry="1.0911888" />
        <g
           id="g6172"
           transform="matrix(1.2513551,0,0,1.2531402,27.932099,-16.598045)"
           style="stroke-width:0.78902692">
          <path
             id="path6154"
             d="M 7.6597374,1.8436789 A 5.016211,5.0143938 0 0 0 2.6452119,6.8583171 H 4.3070695 A 3.3538661,3.2561391 0 0 1 7.6597374,3.601407 3.3538661,3.2561391 0 0 1 11.014335,6.8583171 h 1.661858 A 5.016211,5.0143938 0 0 0 7.6597374,1.8436789 Z"
             style="opacity:1;fill:#319aff;fill-opacity:1;stroke:#151515;stroke-width:0.49393085;stroke-linecap:round;stroke-linejoin:round;stroke-miterlimit:4;stroke-dasharray:2.96358528, 2.96358528;stroke-dashoffset:0;stroke-opacity:1" />
          <path
             transform="rotate(90)"
             d="m 12.013742,-4.2420149 a 3.0207796,2.9314826 0 0 1 -1.510389,2.5387384 3.0207796,2.9314826 0 0 1 -3.02078,-10e-8 3.0207796,2.9314826 0 0 1 -1.5103898,-2.5387384 l 3.0207796,1e-7 z"
             id="path6152"
             style="opacity:1;fill:#5eb0ff;fill-opacity:1;stroke:#151515;stroke-width:0.49393085;stroke-linecap:round;stroke-linejoin:round;stroke-miterlimit:4;stroke-dasharray:2.96358528, 2.96358528;stroke-dashoffset:0;stroke-opacity:1" />
          <rect
             ry="0.42329299"
             y="10.896663"
             x="8.6556311"
             height="0.84658599"
             width="2.5081055"
             id="rect6165"
             style="opacity:1;fill:#5eb0ff;fill-opacity:1;stroke:#151515;stroke-width:0.49393085;stroke-linecap:round;stroke-linejoin:round;stroke-miterlimit:4;stroke-dasharray:2.96358528, 2.96358528;stroke-dashoffset:0;stroke-opacity:1" />
          <path
             style="opacity:1;fill:#5eb0ff;fill-opacity:1;stroke:#151515;stroke-width:0.49393085;stroke-linecap:round;stroke-linejoin:round;stroke-miterlimit:4;stroke-dasharray:2.96358528, 2.96358528;stroke-dashoffset:0;stroke-opacity:1"
             id="path6161"
             d="m -5.9721832,10.430669 a 3.0207796,2.9314826 0 0 1 -1.5103899,2.538738 3.0207796,2.9314826 0 0 1 -3.0207799,0 3.0207796,2.9314826 0 0 1 -1.510389,-2.538738 l 3.0207792,0 z"
             transform="rotate(-90)" />
          <rect
             ry="0.86286652"
             y="10.636174"
             x="6.7338362"
             height="1.725733"
             width="2.4755328"
             id="rect6163"
             style="opacity:1;fill:#2680d6;fill-opacity:1;stroke:#151515;stroke-width:0.49393085;stroke-linecap:round;stroke-linejoin:round;stroke-miterlimit:4;stroke-dasharray:2.96358528, 2.96358528;stroke-dashoffset:0;stroke-opacity:1" />
        </g>
      </g>
      <g
         style="stroke-width:0.79228234"
         transform="matrix(1.2486643,0,0,1.2455418,-29.286309,-4.581257)"
         id="g6278">
        <path
           style="opacity:1;fill:#ff724d;fill-opacity:1;stroke:#151515;stroke-width:0.4959687;stroke-linecap:round;stroke-linejoin:round;stroke-miterlimit:4;stroke-dasharray:2.97581239, 2.97581239;stroke-dashoffset:0;stroke-opacity:1"
           d="m 7.5330664,2.8004765 c -0.3699292,0 -0.6678313,0.2977941 -0.6678313,0.6675894 0,0.1688443 0.067164,0.3187444 0.169853,0.4360555 v 2.1455474 c 0,0.3697953 0.2980361,0.6675895 0.6678314,0.6675895 0.3697953,0 0.6678314,-0.2977942 0.6678314,-0.6675895 V 4.1356553 h 1.4572619 c 0.3699292,0 0.6678312,-0.2977941 0.6678312,-0.6675894 0,-0.3697953 -0.297902,-0.6675894 -0.6678312,-0.6675894 z"
           id="rect6261" />
        <ellipse
           ry="1.3187206"
           rx="1.3191984"
           cy="6.8749752"
           cx="10.877522"
           id="ellipse6265"
           style="opacity:1;fill:#ff6037;fill-opacity:1;stroke:#151515;stroke-width:0.4959687;stroke-linecap:round;stroke-linejoin:round;stroke-miterlimit:4;stroke-dasharray:2.97581239, 2.97581239;stroke-dashoffset:0;stroke-opacity:1" />
        <ellipse
           style="opacity:1;fill:#ff714c;fill-opacity:1;stroke:#151515;stroke-width:0.4959687;stroke-linecap:round;stroke-linejoin:round;stroke-miterlimit:4;stroke-dasharray:2.97581239, 2.97581239;stroke-dashoffset:0;stroke-opacity:1"
           id="ellipse6267"
           cx="4.2472014"
           cy="6.8749752"
           rx="1.3191984"
           ry="1.3187206" />
        <ellipse
           style="opacity:1;fill:#ff663c;fill-opacity:1;stroke:#151515;stroke-width:0.4959687;stroke-linecap:round;stroke-linejoin:round;stroke-miterlimit:4;stroke-dasharray:2.97581239, 2.97581239;stroke-dashoffset:0;stroke-opacity:1"
           id="path6253"
           cx="7.9313397"
           cy="10.0552"
           rx="4.2507501"
           ry="4.2492104" />
        <ellipse
           style="opacity:1;fill:#ffffff;fill-opacity:1;stroke:#151515;stroke-width:0.4959687;stroke-linecap:round;stroke-linejoin:round;stroke-miterlimit:4;stroke-dasharray:2.97581239, 2.97581239;stroke-dashoffset:0;stroke-opacity:1"
           id="path6255"
           cx="9.73913"
           cy="10.0552"
           rx="0.70031518"
           ry="0.70006144" />
        <ellipse
           ry="0.70006144"
           rx="0.70031518"
           cy="10.0552"
           cx="6.2049813"
           id="ellipse6257"
           style="opacity:1;fill:#ffffff;fill-opacity:1;stroke:#151515;stroke-width:0.4959687;stroke-linecap:round;stroke-linejoin:round;stroke-miterlimit:4;stroke-dasharray:2.97581239, 2.97581239;stroke-dashoffset:0;stroke-opacity:1" />
        <ellipse
           style="opacity:1;fill:#ff987d;fill-opacity:1;stroke:#151515;stroke-width:0.4959687;stroke-linecap:round;stroke-linejoin:round;stroke-miterlimit:4;stroke-dasharray:2.97581239, 2.97581239;stroke-dashoffset:0;stroke-opacity:1"
           id="path6263"
           cx="11.225614"
           cy="3.4284577"
           rx="1.3191984"
           ry="1.3187206" />
      </g>
      <g
         style="stroke-width:0.99630547"
         transform="matrix(0.99172546,0,0,0.99171627,0.28265174,0.33499464)"
         id="g7109">
        <rect
           style="opacity:1;fill:#97513e;fill-opacity:1;stroke:#151515;stroke-width:0.62368722;stroke-linecap:round;stroke-linejoin:round;stroke-miterlimit:4;stroke-dasharray:0,0.62368722,1.24737443,1.87106164,2.49474886,3.11843608,3.74212329,4.3658105,4.98949772,5.61318493,6.23687215,6.86055936,7.48424658,8.10793379,8.73162101;stroke-dashoffset:0.81079338;stroke-opacity:1"
           id="rect7105"
           width="13.925478"
           height="13.804688"
           x="1.286294"
           y="1.6201361"
           ry="1.3533045" />
        <path
           style="display:inline;fill:#4aff4a;fill-opacity:1;stroke:#1d1d1d;stroke-width:0.62368727;stroke-linecap:round;stroke-linejoin:round;stroke-miterlimit:4;stroke-dasharray:0, 0.62368727, 1.24737447, 1.87106175, 2.49474898, 3.11843625, 3.74212348, 4.36581075, 4.98949798, 5.61318522, 6.23687249, 6.86055972, 7.48424698, 8.10793424, 8.73162146;stroke-dashoffset:0;stroke-opacity:1"
           d="m 1.1565303,0.67478248 c -0.22160848,0 -0.39998258,0.21914457 -0.39998258,0.49140842 v 2.9023142 c 0,0.2722671 0.1783741,0.4914082 0.39998258,0.4914082 h 0.6937132 v 1.8120791 c 0,0.2722632 0.178374,0.4914083 0.3999825,0.4914083 h 0.5810714 c 0.2216084,0 0.400073,-0.2191451 0.400073,-0.4914083 V 4.5599133 h 0.025129 v 1.0058253 c 0,0.272267 0.1783671,0.4915171 0.3999824,0.4915171 h 0.5810714 c 0.2216084,0 0.3999824,-0.2192501 0.3999824,-0.4915171 V 4.5599133 h 1.5251 v 2.349509 c 0,0.2722632 0.1784575,0.4915135 0.400066,0.4915135 h 0.5810717 c 0.2216154,0 0.3999825,-0.2192503 0.3999825,-0.4915135 v -2.349509 h 2.0250417 v 0.9290522 c 0,0.2722633 0.178457,0.4914081 0.400065,0.4914081 h 0.5810725 c 0.221608,0 0.399982,-0.2191448 0.399982,-0.4914081 V 4.5599133 h 2.275093 v 0.8906638 c 0,0.2722632 0.178367,0.4914082 0.399982,0.4914082 h 0.581072 c 0.221607,0 0.400073,-0.219145 0.400073,-0.4914082 V 4.5599133 h 0.943681 c 0.221607,0 0.399981,-0.2191411 0.399981,-0.4914082 V 1.1661909 c 0,-0.27226385 -0.178374,-0.49140842 -0.399981,-0.49140842 z"
           id="rect1030" />
      </g>
    </g>
  </g>
</svg>
