<svg xmlns="http://www.w3.org/2000/svg" xmlns:svg="http://www.w3.org/2000/svg" id="SVGRoot" width="16" height="16" version="1.1" viewBox="0 0 16 16"><defs id="defs1906"><marker style="overflow:visible" id="marker3274" orient="auto" refX="0" refY="0"><path style="fill-rule:evenodd;stroke:#070000;stroke-width:1pt;stroke-opacity:1;fill:#070000;fill-opacity:1" id="path3272" d="M 0.0,0.0 L 5.0,-5.0 L -12.5,0.0 L 5.0,5.0 L 0.0,0.0 z" transform="scale(0.8) rotate(180) translate(12.5,0)"/></marker><marker style="overflow:visible" id="Arrow1Lend" orient="auto" refX="0" refY="0"><path style="fill-rule:evenodd;stroke:#070000;stroke-width:1pt;stroke-opacity:1;fill:#ff4b4b;fill-opacity:1" id="path831" d="M 0.0,0.0 L 5.0,-5.0 L -12.5,0.0 L 5.0,5.0 L 0.0,0.0 z" transform="scale(0.8) rotate(180) translate(12.5,0)"/></marker></defs><metadata id="metadata1909"/><g id="layer1"><g style="stroke-width:.9880569" id="g4800" transform="matrix(1.0119041,0,0,1.0122708,-0.45261043,-0.36998222)"><rect style="opacity:1;fill:#ffff7e;fill-opacity:1;stroke:#000;stroke-width:.91494071;stroke-linecap:round;stroke-linejoin:round;stroke-miterlimit:4;stroke-dasharray:0,.9149407,1.82988139,2.74482211,3.6597628,4.5747035,5.4896442,6.40458491,7.31952561,8.2344663,9.14940701,10.06434772,10.97928841,11.89422911,12.8091698;stroke-dashoffset:0;stroke-opacity:1" id="rect2464" width="14.897" height="14.897" x="22.325" y=".311" ry="2.909"/><rect style="opacity:1;fill:#ff4b4b;fill-opacity:1;stroke:#070000;stroke-width:.52006495;stroke-linecap:round;stroke-linejoin:round;stroke-miterlimit:4;stroke-dasharray:0,.52006493,1.04012986,1.5601948,2.08025973,2.60032466,3.12038959,3.64045452,4.16051945,4.68058439,5.20064932,5.72071425,6.24077917,6.76084409,7.28090903;stroke-dashoffset:0;stroke-opacity:1" id="rect2466" width="9.902" height="9.902" x="24.822" y="2.808" ry=".328"/><path style="opacity:1;fill:#ff4b4b;fill-opacity:1;stroke:#070000;stroke-width:.32245356;stroke-linecap:round;stroke-linejoin:round;stroke-miterlimit:4;stroke-dasharray:1.93472132,1.93472132;stroke-dashoffset:0;stroke-opacity:1" id="path2468" d="m 24.822401,2.8083442 9.90173,9.9017308"/><path style="opacity:1;fill:none;fill-opacity:1;stroke:#070000;stroke-width:.28535718;stroke-linecap:round;stroke-linejoin:round;stroke-miterlimit:4;stroke-dasharray:none;stroke-dashoffset:0;stroke-opacity:1;marker-end:url(#marker3274)" id="path2470" d="M 24.822401,12.710075 C 23.896587,13.10088 22.737985,7.6942265 34.220823,3.1955046"/><rect id="rect6094" width="14.95" height="11.747" x="9.577" y="-13.513" ry="2.592" style="opacity:1;fill:red;fill-opacity:1;stroke:#070000;stroke-width:.6185236;stroke-linecap:round;stroke-linejoin:round;stroke-miterlimit:4;stroke-dasharray:3.71114192,3.71114192;stroke-dashoffset:0;stroke-opacity:1"/><path id="path6096" d="m 9.55867,5.6174269 -7.3668487,4.2532521 0,-8.5065042 z" transform="matrix(0.82463921,0,0,0.82605634,13.219685,-12.27964)" style="opacity:1;fill:#fff;fill-opacity:1;stroke:#070000;stroke-width:.74940997;stroke-linecap:round;stroke-linejoin:round;stroke-miterlimit:4;stroke-dasharray:4.49645993,4.49645993;stroke-dashoffset:0;stroke-opacity:1"/><g style="stroke-width:.96603668" id="g6209" transform="matrix(1.002825,0,0,1.0431615,-16.650223,-10.884255)"><rect style="opacity:1;fill:#9f2ee3;fill-opacity:1;stroke:#070000;stroke-width:.60473895;stroke-linecap:round;stroke-linejoin:round;stroke-miterlimit:4;stroke-dasharray:3.62843373,3.62843373;stroke-dashoffset:0;stroke-opacity:1" id="rect6123" width="5.078" height="7.103" x="5.649" y="6.463" ry="2.452" transform="matrix(0.91366373,-0.4064709,0.40633036,0.91372624,0,0)"/><rect id="rect6129" width="4.791" height="6.705" x="1.661" y="1.671" ry="2.315" transform="matrix(0.93332393,0.35903543,-0.35838734,0.93357298,0,0)" style="opacity:1;fill:#9f2ee3;fill-opacity:1;stroke:#070000;stroke-width:.60473901;stroke-linecap:round;stroke-linejoin:round;stroke-miterlimit:4;stroke-dasharray:3.62843419,3.62843419;stroke-dashoffset:0;stroke-opacity:1"/><ellipse style="opacity:1;fill:#bb47ff;fill-opacity:1;stroke:#151515;stroke-width:.60473901;stroke-linecap:round;stroke-linejoin:round;stroke-miterlimit:4;stroke-dasharray:3.62843391,3.62843391;stroke-dashoffset:0;stroke-opacity:1" id="path6119" cx="6.776" cy="3.266" rx="6.456" ry="3.461"/><rect style="opacity:1;fill:#fff;fill-opacity:1;stroke:#070000;stroke-width:.60473895;stroke-linecap:round;stroke-linejoin:round;stroke-miterlimit:4;stroke-dasharray:3.62843379,3.62843379;stroke-dashoffset:0;stroke-opacity:1" id="rect6125" width="1.805" height="1.805" x="8.297" y="2.105" ry=".902"/><rect id="rect6131" width="1.805" height="1.805" x="4.005" y="-3.388" ry=".903" transform="matrix(0.50013588,0.86594694,-0.86610383,0.49986414,0,0)" style="opacity:1;fill:#fff;fill-opacity:1;stroke:#070000;stroke-width:.60473895;stroke-linecap:round;stroke-linejoin:round;stroke-miterlimit:4;stroke-dasharray:3.62843379,3.62843379;stroke-dashoffset:0;stroke-opacity:1"/></g><g id="g6202" transform="translate(4.1458405,-4.9732064)"><rect style="opacity:1;fill:#2d7dc9;fill-opacity:1;stroke:#151515;stroke-width:.6185236;stroke-linecap:round;stroke-linejoin:round;stroke-miterlimit:4;stroke-dasharray:3.71114182,3.71114182;stroke-dashoffset:0;stroke-opacity:1" id="rect6174" width="2.182" height="5.014" x="36.494" y="-13.017" ry="1.091"/><g id="g6172" transform="matrix(1.2513551,0,0,1.2531402,27.932099,-16.598045)" style="stroke-width:.78902692"><path id="path6154" d="M 7.6597374,1.8436789 A 5.016211,5.0143938 0 0 0 2.6452119,6.8583171 H 4.3070695 A 3.3538661,3.2561391 0 0 1 7.6597374,3.601407 3.3538661,3.2561391 0 0 1 11.014335,6.8583171 h 1.661858 A 5.016211,5.0143938 0 0 0 7.6597374,1.8436789 Z" style="opacity:1;fill:#319aff;fill-opacity:1;stroke:#151515;stroke-width:.49393085;stroke-linecap:round;stroke-linejoin:round;stroke-miterlimit:4;stroke-dasharray:2.96358528,2.96358528;stroke-dashoffset:0;stroke-opacity:1"/><path id="path6152" d="m 12.013742,-4.2420149 a 3.0207796,2.9314826 0 0 1 -1.510389,2.5387384 3.0207796,2.9314826 0 0 1 -3.02078,-10e-8 3.0207796,2.9314826 0 0 1 -1.5103898,-2.5387384 l 3.0207796,1e-7 z" transform="rotate(90)" style="opacity:1;fill:#5eb0ff;fill-opacity:1;stroke:#151515;stroke-width:.49393085;stroke-linecap:round;stroke-linejoin:round;stroke-miterlimit:4;stroke-dasharray:2.96358528,2.96358528;stroke-dashoffset:0;stroke-opacity:1"/><rect id="rect6165" width="2.508" height=".847" x="8.656" y="10.897" ry=".423" style="opacity:1;fill:#5eb0ff;fill-opacity:1;stroke:#151515;stroke-width:.49393085;stroke-linecap:round;stroke-linejoin:round;stroke-miterlimit:4;stroke-dasharray:2.96358528,2.96358528;stroke-dashoffset:0;stroke-opacity:1"/><path style="opacity:1;fill:#5eb0ff;fill-opacity:1;stroke:#151515;stroke-width:.49393085;stroke-linecap:round;stroke-linejoin:round;stroke-miterlimit:4;stroke-dasharray:2.96358528,2.96358528;stroke-dashoffset:0;stroke-opacity:1" id="path6161" d="m -5.9721832,10.430669 a 3.0207796,2.9314826 0 0 1 -1.5103899,2.538738 3.0207796,2.9314826 0 0 1 -3.0207799,0 3.0207796,2.9314826 0 0 1 -1.510389,-2.538738 l 3.0207792,0 z" transform="rotate(-90)"/><rect id="rect6163" width="2.476" height="1.726" x="6.734" y="10.636" ry=".863" style="opacity:1;fill:#2680d6;fill-opacity:1;stroke:#151515;stroke-width:.49393085;stroke-linecap:round;stroke-linejoin:round;stroke-miterlimit:4;stroke-dasharray:2.96358528,2.96358528;stroke-dashoffset:0;stroke-opacity:1"/></g></g><g style="stroke-width:.79228234" id="g6278" transform="matrix(1.2486643,0,0,1.2455418,-1.4599688,-1.954071)"><path style="opacity:1;fill:#ff724d;fill-opacity:1;stroke:#151515;stroke-width:.4959687;stroke-linecap:round;stroke-linejoin:round;stroke-miterlimit:4;stroke-dasharray:2.97581239,2.97581239;stroke-dashoffset:0;stroke-opacity:1" id="rect6261" d="m 7.5330664,2.8004765 c -0.3699292,0 -0.6678313,0.2977941 -0.6678313,0.6675894 0,0.1688443 0.067164,0.3187444 0.169853,0.4360555 v 2.1455474 c 0,0.3697953 0.2980361,0.6675895 0.6678314,0.6675895 0.3697953,0 0.6678314,-0.2977942 0.6678314,-0.6675895 V 4.1356553 h 1.4572619 c 0.3699292,0 0.6678312,-0.2977941 0.6678312,-0.6675894 0,-0.3697953 -0.297902,-0.6675894 -0.6678312,-0.6675894 z"/><ellipse id="ellipse6265" cx="10.878" cy="6.875" rx="1.319" ry="1.319" style="opacity:1;fill:#ff6037;fill-opacity:1;stroke:#151515;stroke-width:.4959687;stroke-linecap:round;stroke-linejoin:round;stroke-miterlimit:4;stroke-dasharray:2.97581239,2.97581239;stroke-dashoffset:0;stroke-opacity:1"/><ellipse style="opacity:1;fill:#ff714c;fill-opacity:1;stroke:#151515;stroke-width:.4959687;stroke-linecap:round;stroke-linejoin:round;stroke-miterlimit:4;stroke-dasharray:2.97581239,2.97581239;stroke-dashoffset:0;stroke-opacity:1" id="ellipse6267" cx="4.247" cy="6.875" rx="1.319" ry="1.319"/><ellipse style="opacity:1;fill:#ff663c;fill-opacity:1;stroke:#151515;stroke-width:.4959687;stroke-linecap:round;stroke-linejoin:round;stroke-miterlimit:4;stroke-dasharray:2.97581239,2.97581239;stroke-dashoffset:0;stroke-opacity:1" id="path6253" cx="7.931" cy="10.055" rx="4.251" ry="4.249"/><ellipse style="opacity:1;fill:#fff;fill-opacity:1;stroke:#151515;stroke-width:.4959687;stroke-linecap:round;stroke-linejoin:round;stroke-miterlimit:4;stroke-dasharray:2.97581239,2.97581239;stroke-dashoffset:0;stroke-opacity:1" id="path6255" cx="9.739" cy="10.055" rx=".7" ry=".7"/><ellipse id="ellipse6257" cx="6.205" cy="10.055" rx=".7" ry=".7" style="opacity:1;fill:#fff;fill-opacity:1;stroke:#151515;stroke-width:.4959687;stroke-linecap:round;stroke-linejoin:round;stroke-miterlimit:4;stroke-dasharray:2.97581239,2.97581239;stroke-dashoffset:0;stroke-opacity:1"/><ellipse style="opacity:1;fill:#ff987d;fill-opacity:1;stroke:#151515;stroke-width:.4959687;stroke-linecap:round;stroke-linejoin:round;stroke-miterlimit:4;stroke-dasharray:2.97581239,2.97581239;stroke-dashoffset:0;stroke-opacity:1" id="path6263" cx="11.226" cy="3.428" rx="1.319" ry="1.319"/></g></g></g></svg>