<?xml version="1.0" standalone="no"?>
<!DOCTYPE svg PUBLIC "-//W3C//DTD SVG 20010904//EN"
 "http://www.w3.org/TR/2001/REC-SVG-20010904/DTD/svg10.dtd">
<svg version="1.0" xmlns="http://www.w3.org/2000/svg"
 width="1000.000000pt" height="1000.000000pt" viewBox="0 0 1000.000000 1000.000000"
 preserveAspectRatio="xMidYMid meet">
<metadata>
Created by potrace 1.11, written by Peter Selinger 2001-2013
</metadata>
<g transform="translate(0.000000,1000.000000) scale(0.100000,-0.100000)"
fill="#000000" stroke="none">
<path d="M0 5000 l0 -5000 5000 0 5000 0 0 5000 0 5000 -5000 0 -5000 0 0
-5000z m3942 4100 c472 -36 878 -224 1227 -567 l74 -73 97 0 98 0 44 -52 c80
-95 175 -241 237 -365 33 -68 61 -130 61 -138 0 -12 -17 -15 -95 -15 l-95 0 6
-25 6 -25 -96 0 c-53 0 -96 -1 -96 -3 0 -2 11 -36 25 -76 13 -40 29 -99 36
-131 l11 -59 101 -3 101 -3 12 -60 c15 -77 34 -325 34 -449 l0 -95 98 -3 97
-3 3 -84 c2 -46 -1 -88 -7 -94 -5 -5 -95 -9 -200 -10 l-191 0 0 -218 0 -218
98 -3 97 -3 3 -96 3 -97 437 -4 c423 -5 441 -6 557 -31 139 -30 298 -83 399
-134 165 -83 347 -225 474 -370 61 -69 172 -223 172 -238 0 -3 -43 -5 -95 -5
l-95 0 22 -45 22 -45 98 0 98 0 20 -32 c11 -18 29 -61 41 -95 l21 -63 97 0
c95 0 98 -1 109 -25 24 -52 20 -55 -82 -55 l-94 0 14 -62 c7 -35 13 -69 14
-75 0 -10 -26 -13 -99 -13 l-98 0 8 -47 c5 -27 11 -87 15 -135 l6 -88 100 0
101 0 -7 -102 c-13 -202 -76 -439 -161 -607 l-35 -71 95 0 c59 0 95 -4 95 -10
0 -28 -139 -212 -244 -323 l-27 -29 66 -73 c36 -40 65 -76 65 -79 0 -3 -42 -6
-94 -6 l-95 0 63 -92 c55 -80 126 -206 126 -223 0 -3 -43 -5 -96 -5 -88 0 -96
-2 -89 -17 4 -10 12 -30 17 -46 10 -27 10 -27 109 -27 96 0 100 -1 111 -25 10
-23 16 -24 111 -27 l100 -3 14 -40 c24 -69 63 -263 63 -315 l0 -50 -97 0 -98
0 -1 -148 c-3 -236 -54 -443 -166 -666 -49 -98 -137 -238 -158 -251 -27 -17
-2 -25 80 -25 50 0 90 -3 90 -7 -1 -14 -122 -138 -195 -200 -81 -69 -208 -156
-268 -184 -32 -14 -66 -19 -140 -19 -78 0 -106 -4 -137 -20 -73 -37 -234 -90
-355 -117 -107 -24 -141 -27 -315 -27 -165 0 -212 4 -305 23 -115 24 -294 84
-367 123 l-43 23 88 3 88 3 -120 79 c-85 56 -152 111 -235 194 l-116 115 -103
3 -102 3 -63 90 c-121 174 -208 376 -253 585 -14 64 -23 150 -26 263 l-6 167
102 0 101 0 0 195 0 195 -99 0 c-92 0 -100 2 -106 21 -6 19 -13 20 -101 17
l-94 -3 0 68 0 67 95 0 c57 0 95 4 95 10 0 7 -400 10 -1180 10 l-1180 0 0 140
0 139 98 3 97 3 3 253 2 252 -100 0 -100 0 0 38 0 39 173 6 c94 4 625 7 1178
7 l1007 0 7 233 c3 127 5 282 3 342 l-3 110 -97 3 -98 3 0 144 0 144 98 3 97
3 3 170 c1 94 0 180 -3 193 -6 23 -9 23 -100 20 -68 -2 -95 0 -95 9 0 8 -163
12 -647 15 l-648 5 -145 31 c-80 17 -165 40 -190 51 l-45 20 80 1 c72 2 77 3
50 13 -80 31 -295 143 -378 198 -247 165 -478 417 -617 669 l-35 65 -101 3
-101 3 -41 87 c-38 84 -103 274 -115 338 l-6 31 195 6 c108 3 197 7 199 9 2 1
-4 38 -12 81 l-16 77 -97 0 -97 0 -7 61 c-13 130 -4 381 20 512 l7 37 -98 0
-97 0 7 48 c3 26 21 90 38 142 l32 95 97 3 c96 3 98 3 115 32 16 28 21 30 78
30 131 0 129 -1 192 123 59 119 172 294 236 367 l39 45 -96 5 -96 5 52 57
c201 216 464 386 752 485 267 91 513 124 778 103z"/>
<path d="M3880 8229 c-218 -22 -402 -108 -602 -280 l-53 -46 -99 -6 c-88 -6
-103 -10 -126 -32 -24 -23 -33 -25 -123 -25 l-97 0 -35 -47 c-37 -52 -115
-194 -115 -212 0 -7 33 -11 95 -11 52 0 95 -1 95 -2 0 -2 -8 -25 -19 -53 -36
-97 -54 -235 -48 -378 8 -189 0 -177 117 -177 l98 0 26 -84 c14 -46 26 -89 26
-95 0 -8 -58 -11 -190 -11 -124 0 -190 -4 -190 -10 0 -16 48 -108 83 -160 47
-70 135 -168 199 -221 l59 -49 102 0 c91 0 106 -3 137 -23 57 -38 171 -95 235
-117 152 -53 150 -53 793 -57 l602 -4 0 90 0 90 -97 3 c-94 3 -98 4 -97 26 0
12 1 117 2 232 l2 210 63 0 c35 0 125 3 201 7 l137 6 -3 76 -3 76 -96 3 -96 3
-7 175 c-7 174 -29 325 -60 399 l-15 35 -99 0 -98 0 -24 56 c-12 31 -49 96
-81 145 l-59 89 96 0 95 0 -21 30 -21 30 90 0 c50 0 91 4 91 9 0 10 -85 83
-160 135 -126 90 -321 160 -490 176 -105 11 -113 10 -220 -1z"/>
<path d="M5740 5254 c-12 -4 -14 -21 -12 -94 l3 -90 95 0 94 0 0 -40 0 -40
-95 0 -94 0 -3 -72 -3 -73 -97 -3 -98 -3 0 -134 0 -134 98 -3 97 -3 3 -347 2
-348 283 -2 c515 -5 579 1 711 69 225 114 379 338 389 564 l2 54 -96 3 -96 3
-7 64 c-5 54 -30 151 -53 211 -4 11 13 14 91 14 53 0 96 4 96 8 0 14 -74 129
-106 165 -73 82 -183 155 -288 194 -23 8 -104 19 -181 25 -152 10 -711 19
-735 12z"/>
<path d="M5725 2970 c-6 -18 -15 -20 -101 -20 l-94 0 0 -45 0 -45 95 0 c92 0
95 -1 101 -25 6 -23 9 -24 102 -27 l97 -3 0 -200 0 -200 -97 -3 -98 -3 0 -98
c0 -310 189 -570 485 -668 69 -23 97 -27 205 -27 144 -1 219 17 335 81 81 44
194 148 248 226 78 113 125 291 114 427 l-6 70 100 0 99 0 -6 28 c-24 111 -75
214 -149 306 l-46 56 -99 0 c-82 0 -105 4 -132 20 -27 16 -51 20 -126 20 -88
0 -96 2 -138 31 -25 17 -77 46 -117 64 l-72 34 65 1 c46 1 59 4 45 10 -11 5
-196 9 -412 9 -383 1 -392 1 -398 -19z"/>
</g>
</svg>
